Coordinates
version=1
nRows=16
nColumns=40
inDegrees=yes

Units are S.I. units (second, meters, Newtons, ...)
If the header above contains a line with 'inDegrees', this indicates whether rotational values are in degrees (yes) or radians (no).

endheader
time	pelvis_tilt	pelvis_list	pelvis_rotation	pelvis_tx	pelvis_ty	pelvis_tz	hip_flexion_r	hip_adduction_r	hip_rotation_r	knee_angle_r	knee_angle_r_beta	ankle_angle_r	subtalar_angle_r	mtp_angle_r	hip_flexion_l	hip_adduction_l	hip_rotation_l	knee_angle_l	knee_angle_l_beta	ankle_angle_l	subtalar_angle_l	mtp_angle_l	lumbar_extension	lumbar_bending	lumbar_rotation	arm_flex_r	arm_add_r	arm_rot_r	elbow_flex_r	pro_sup_r	wrist_flex_r	wrist_dev_r	arm_flex_l	arm_add_l	arm_rot_l	elbow_flex_l	pro_sup_l	wrist_flex_l	wrist_dev_l
      5.24500000	    -29.32150441	     -2.66657837	     10.72772969	      0.06642507	      0.69174182	     -1.20617469	     77.61545910	    -41.96374597	     -7.44304623	     72.06773821	      1.25781932	     12.79279459	    -16.07162512	      0.00000000	     84.35750834	    -20.09393774	      2.33822209	     68.34140749	      1.19278258	     14.09829768	     -0.59951008	      0.00000000	      0.00000000	      0.00000000	      0.00000000	     44.99784692	    -14.99999772	     44.99784692	     75.00017585	     45.00000026	      0.00000000	      0.00000000	     44.99784692	    -14.99999772	     44.99784692	     75.00017585	     45.00000026	      0.00000000	      0.00000000
      5.25000000	    -29.30048482	     -2.65428708	     10.72292220	      0.06684404	      0.69206925	     -1.20612401	     77.52237127	    -41.95590096	     -7.47183908	     72.03056124	      1.25717046	     12.80874129	    -16.05428408	      0.00000000	     84.26864546	    -20.13201005	      2.27999214	     68.29934111	      1.19204838	     14.12204031	     -0.56248329	      0.00000000	      0.00000000	      0.00000000	      0.00000000	     44.99785167	    -14.99999773	     44.99785167	     75.00017585	     45.00000026	      0.00000000	      0.00000000	     44.99785167	    -14.99999773	     44.99785167	     75.00017585	     45.00000026	      0.00000000	      0.00000000
      5.25500000	    -29.27622753	     -2.63772831	     10.71581833	      0.06722807	      0.69239976	     -1.20606602	     77.43212554	    -41.94661577	     -7.49943753	     71.99029868	      1.25646774	     12.82275889	    -16.03756025	      0.00000000	     84.17433292	    -20.16343213	      2.23365359	     68.25758604	      1.19131962	     14.14275740	     -0.52037206	      0.00000000	      0.00000000	      0.00000000	      0.00000000	     44.99785645	    -14.99999774	     44.99785645	     75.00017585	     45.00000026	      0.00000000	      0.00000000	     44.99785645	    -14.99999774	     44.99785645	     75.00017585	     45.00000026	      0.00000000	      0.00000000
      5.26000000	    -29.25211194	     -2.62248748	     10.71088033	      0.06760570	      0.69273415	     -1.20601488	     77.33982212	    -41.93785539	     -7.52747343	     71.94984775	      1.25576174	     12.83367742	    -16.02103655	      0.00000000	     84.08134002	    -20.19691053	      2.17981741	     68.21307682	      1.19054278	     14.15917813	     -0.47877777	      0.00000000	      0.00000000	      0.00000000	      0.00000000	     44.99786122	    -14.99999775	     44.99786122	     75.00017585	     45.00000026	      0.00000000	      0.00000000	     44.99786122	    -14.99999775	     44.99786122	     75.00017585	     45.00000026	      0.00000000	      0.00000000
      5.26500000	    -29.22626324	     -2.60573354	     10.70699001	      0.06796119	      0.69306818	     -1.20595921	     77.24899100	    -41.93122258	     -7.55486956	     71.90809024	      1.25503293	     12.84351835	    -16.00579482	      0.00000000	     83.98664924	    -20.22748866	      2.12963760	     68.16781826	      1.18975287	     14.17400101	     -0.43452420	      0.00000000	      0.00000000	      0.00000000	      0.00000000	     44.99786598	    -14.99999775	     44.99786598	     75.00017585	     45.00000026	      0.00000000	      0.00000000	     44.99786598	    -14.99999775	     44.99786598	     75.00017585	     45.00000026	      0.00000000	      0.00000000
      5.27000000	    -29.38109204	     -3.06753785	     11.04983912	      0.06810667	      0.69271564	     -1.20714388	     76.91910914	    -42.22460498	     -8.29493672	     71.86707539	      1.25431709	     12.91624353	    -15.94196222	      0.00000000	     84.44948466	    -19.82384526	      2.81041653	     68.22365111	      1.19072734	     14.37109313	     -0.21467618	      0.00000000	      0.00000000	      0.00000000	      0.00000000	     44.99787702	    -14.99999777	     44.99787702	     75.00017585	     45.00000026	      0.00000000	      0.00000000	     44.99787702	    -14.99999777	     44.99787702	     75.00017585	     45.00000026	      0.00000000	      0.00000000
      5.27500000	    -29.31897697	     -3.02433350	     11.00312331	      0.06850875	      0.69319681	     -1.20697324	     76.80098368	    -42.18409004	     -8.31494269	     71.80827786	      1.25329088	     12.88526277	    -15.87102218	      0.00000000	     84.30185599	    -19.93011635	      2.67589336	     68.17420423	      1.18986433	     14.28216026	     -0.24131535	      0.00000000	      0.00000000	      0.00000000	      0.00000000	     44.99788200	    -14.99999778	     44.99788200	     75.00017585	     45.00000026	      0.00000000	      0.00000000	     44.99788200	    -14.99999778	     44.99788200	     75.00017585	     45.00000026	      0.00000000	      0.00000000
      5.28000000	    -29.26247129	     -2.98187665	     10.97836292	      0.06887452	      0.69363656	     -1.20685793	     76.68894019	    -42.15972260	     -8.32761953	     71.75906893	      1.25243202	     12.89816549	    -15.85366804	      0.00000000	     84.15530707	    -19.99355913	      2.57246909	     68.11384190	      1.18881081	     14.25179581	     -0.24136735	      0.00000000	      0.00000000	      0.00000000	      0.00000000	     44.99788686	    -14.99999779	     44.99788686	     75.00017585	     45.00000026	      0.00000000	      0.00000000	     44.99788686	    -14.99999779	     44.99788686	     75.00017585	     45.00000026	      0.00000000	      0.00000000
      5.28500000	    -29.20712704	     -2.94346605	     10.97828303	      0.06919209	      0.69405305	     -1.20679659	     76.57284312	    -42.14863719	     -8.32213342	     71.71003316	      1.25157619	     12.92932190	    -15.86819555	      0.00000000	     84.01164495	    -20.01677616	      2.50379920	     68.05172456	      1.18772666	     14.27268646	     -0.20260857	      0.00000000	      0.00000000	      0.00000000	      0.00000000	     44.99789176	    -14.99999780	     44.99789176	     75.00017585	     45.00000026	      0.00000000	      0.00000000	     44.99789176	    -14.99999780	     44.99789176	     75.00017585	     45.00000026	      0.00000000	      0.00000000
      5.29000000	    -29.15234564	     -2.90448197	     10.95494508	      0.06953567	      0.69445783	     -1.20667522	     76.47014237	    -42.12906439	     -8.33246836	     71.66188124	      1.25073578	     12.91291190	    -15.82740190	      0.00000000	     83.87645914	    -20.07975414	      2.41062715	     68.00166036	      1.18685287	     14.23856076	     -0.19052289	      0.00000000	      0.00000000	      0.00000000	      0.00000000	     44.99789653	    -14.99999781	     44.99789653	     75.00017585	     45.00000026	      0.00000000	      0.00000000	     44.99789653	    -14.99999781	     44.99789653	     75.00017585	     45.00000026	      0.00000000	      0.00000000
      5.29500000	    -29.10701702	     -2.86642851	     10.93908580	      0.06988695	      0.69485639	     -1.20657832	     76.37142278	    -42.11830081	     -8.35022293	     71.61659684	      1.24994541	     12.91762267	    -15.80921503	      0.00000000	     83.74778170	    -20.13190805	      2.31271112	     67.94801301	      1.18591655	     14.22726482	     -0.17228095	      0.00000000	      0.00000000	      0.00000000	      0.00000000	     44.99790122	    -14.99999782	     44.99790122	     75.00017585	     45.00000026	      0.00000000	      0.00000000	     44.99790122	    -14.99999782	     44.99790122	     75.00017585	     45.00000026	      0.00000000	      0.00000000
      5.30000000	    -29.05977644	     -2.82828477	     10.92058354	      0.07021616	      0.69524173	     -1.20648309	     76.27433295	    -42.10174187	     -8.35775294	     71.56983257	      1.24912922	     12.92351781	    -15.79149505	      0.00000000	     83.61824652	    -20.17802012	      2.23373275	     67.89689723	      1.18502441	     14.22138659	     -0.14665560	      0.00000000	      0.00000000	      0.00000000	      0.00000000	     44.99790591	    -14.99999782	     44.99790591	     75.00017585	     45.00000026	      0.00000000	      0.00000000	     44.99790591	    -14.99999782	     44.99790591	     75.00017585	     45.00000026	      0.00000000	      0.00000000
      5.30500000	    -29.03387174	     -2.84809617	     11.04085411	      0.07044551	      0.69544361	     -1.20678231	     76.14273562	    -42.21215209	     -8.43045062	     71.54278391	      1.24865714	     12.94307915	    -15.85284550	      0.00000000	     83.55507202	    -20.03134959	      2.33479577	     67.86689832	      1.18450083	     14.47933674	      0.14095499	      0.00000000	      0.00000000	      0.00000000	      0.00000000	     44.99791166	    -14.99999783	     44.99791166	     75.00017585	     45.00000026	      0.00000000	      0.00000000	     44.99791166	    -14.99999783	     44.99791166	     75.00017585	     45.00000026	      0.00000000	      0.00000000
      5.31000000	    -28.98227211	     -2.81391770	     10.98249915	      0.07081122	      0.69585637	     -1.20661421	     76.04336857	    -42.16744297	     -8.45703778	     71.48989899	      1.24773412	     12.91587836	    -15.77380860	      0.00000000	     83.42964670	    -20.13718926	      2.22575157	     67.82370028	      1.18374688	     14.38694511	      0.10216796	      0.00000000	      0.00000000	      0.00000000	      0.00000000	     44.99791645	    -14.99999784	     44.99791645	     75.00017585	     45.00000026	      0.00000000	      0.00000000	     44.99791645	    -14.99999784	     44.99791645	     75.00017585	     45.00000026	      0.00000000	      0.00000000
      5.31500000	    -28.93928072	     -2.78402416	     10.95005658	      0.07116155	      0.69623745	     -1.20649993	     75.94648880	    -42.13969998	     -8.47800680	     71.44374133	      1.24692852	     12.92719961	    -15.74281417	      0.00000000	     83.31190787	    -20.20701955	      2.13227494	     67.77356279	      1.18287182	     14.34981781	      0.08464754	      0.00000000	      0.00000000	      0.00000000	      0.00000000	     44.99792112	    -14.99999785	     44.99792112	     75.00017585	     45.00000026	      0.00000000	      0.00000000	     44.99792112	    -14.99999785	     44.99792112	     75.00017585	     45.00000026	      0.00000000	      0.00000000
      5.32000000	    -28.89842096	     -2.75303393	     10.92168771	      0.07150138	      0.69660557	     -1.20640850	     75.85280175	    -42.11328861	     -8.49232681	     71.39666989	      1.24610696	     12.94075405	    -15.72084937	      0.00000000	     83.19412047	    -20.26016697	      2.05708442	     67.72567905	      1.18203609	     14.33334802	      0.08234098	      0.00000000	      0.00000000	      0.00000000	      0.00000000	     44.99792575	    -14.99999786	     44.99792575	     75.00017585	     45.00000026	      0.00000000	      0.00000000	     44.99792575	    -14.99999786	     44.99792575	     75.00017585	     45.00000026	      0.00000000	      0.00000000
